<svg xmlns="http://www.w3.org/2000/svg" width="88" height="88" viewBox="0 0 88 88" role="img" aria-label="Logo">
  <defs>
    <linearGradient id="lg" x1="0" y1="0" x2="1" y2="1">
      <stop offset="0" stop-color="#b98f76"/><stop offset="1" stop-color="#7c9070"/>
    </linearGradient>
  </defs>
  <circle cx="44" cy="44" r="42" fill="none" stroke="url(#lg)" stroke-width="2.5"/>
  <circle cx="44" cy="44" r="34" fill="none" stroke="#b8965a" stroke-width="1" opacity="0.5"/>
  <text x="44" y="52" text-anchor="middle" font-family="Georgia, serif" font-size="30" font-style="italic" fill="#4a5a48">NS</text>
  <g transform="translate(44,24) scale(0.5)" opacity="0.9"><path transform="translate(-12,-12)" d="M9 2c-2.8 0-5 2.2-5 5 0 1.2.3 2.5.6 3.6.6 2 1 4 1.2 6 .1 1.3.3 2.6.8 3.8.3.7.9 1.6 1.7 1.6.9 0 1.2-1 1.4-1.8.3-1.4.6-2.9.8-4.3.1-.5.5-.9 1-.9s.9.4 1 .9c.2 1.4.5 2.9.8 4.3.2.8.5 1.8 1.4 1.8.8 0 1.4-.9 1.7-1.6.5-1.2.7-2.5.8-3.8.2-2 .6-4 1.2-6C19.7 9.5 20 8.2 20 7c0-2.8-2.2-5-5-5-1.3 0-2.4.5-3 1-.6-.5-1.7-1-3-1z" fill="#b98f76"/></g>
</svg>